<?xml version="1.0" encoding="iso-8859-1"?>
<!-- Generator: Adobe Illustrator 19.0.0, SVG Export Plug-In . SVG Version: 6.00 Build 0)  -->
<svg version="1.1" id="Layer_1" xmlns="http://www.w3.org/2000/svg" xmlns:xlink="http://www.w3.org/1999/xlink" x="0px" y="0px"
	 viewBox="0 0 511.991 511.991" style="enable-background:new 0 0 511.991 511.991;" xml:space="preserve">
<circle style="fill:#333E48;" cx="255.995" cy="255.995" r="255.995"/>
<circle style="fill:#FFFFFF;" cx="255.995" cy="255.995" r="205.335"/>
<circle style="opacity:0.2;enable-background:new    ;" cx="255.995" cy="256.007" r="61.919"/>
<g>
	<circle style="fill:#333E48;" cx="255.995" cy="82.251" r="7.134"/>
	<circle style="fill:#333E48;" cx="133.137" cy="133.137" r="7.134"/>
	<circle style="fill:#333E48;" cx="82.251" cy="256.007" r="7.134"/>
	<circle style="fill:#333E48;" cx="133.137" cy="378.854" r="7.134"/>
	<circle style="fill:#333E48;" cx="255.995" cy="429.751" r="7.134"/>
	<circle style="fill:#333E48;" cx="378.854" cy="378.854" r="7.134"/>
	<path style="fill:#333E48;" d="M429.748,263.134c3.94-0.003,7.133-3.194,7.133-7.134c0.003-3.94-3.193-7.133-7.132-7.133
		c-3.939-0.001-7.134,3.191-7.134,7.132C422.615,259.941,425.808,263.134,429.748,263.134z"/>
	<path style="fill:#333E48;" d="M383.903,138.187c2.783-2.789,2.785-7.302-0.001-10.088c-2.784-2.789-7.302-2.786-10.087-0.001
		c-2.788,2.784-2.789,7.301-0.001,10.088C376.6,140.973,381.117,140.974,383.903,138.187z"/>
</g>
<path style="fill:#0071CE;" d="M330.303,272.887h-74.306c-9.326,0-16.887-7.561-16.887-16.887s7.561-16.887,16.887-16.887h74.306
	c9.326,0,16.887,7.561,16.887,16.887S339.629,272.887,330.303,272.887z"/>
<path style="fill:#4BB6AA;" d="M255.997,272.887c-4.322,0-8.643-1.648-11.941-4.947l-90.094-90.095
	c-6.595-6.595-6.595-17.287,0-23.882c6.594-6.595,17.287-6.594,23.882,0l90.094,90.095c6.595,6.595,6.595,17.287,0,23.882
	C264.641,271.238,260.317,272.887,255.997,272.887z"/>
<g>
</g>
<g>
</g>
<g>
</g>
<g>
</g>
<g>
</g>
<g>
</g>
<g>
</g>
<g>
</g>
<g>
</g>
<g>
</g>
<g>
</g>
<g>
</g>
<g>
</g>
<g>
</g>
<g>
</g>
</svg>
